<svg width="37" height="37" viewBox="0 0 37 37" fill="none" xmlns="http://www.w3.org/2000/svg">
<path opacity="0.4" d="M18.211 36.4325C16.8105 36.4325 15.4118 35.9007 14.3427 34.839L13.0132 33.5095C12.4978 32.9959 11.8075 32.7117 11.0754 32.7099H9.205C6.18175 32.7099 3.72126 30.2494 3.72126 27.2262V25.354C3.71944 24.6236 3.43532 23.9334 2.91991 23.4143L1.61227 22.1085C-0.529506 19.9795 -0.538612 16.4991 1.59223 14.3555L2.92174 13.0242C3.43532 12.5088 3.71944 11.8185 3.72126 11.0864V9.21782C3.72126 6.19275 6.18175 3.73226 9.205 3.73226H11.0772C11.8075 3.73226 12.496 3.44814 13.015 2.92909L14.3245 1.62327C16.4535 -0.518505 19.9321 -0.529433 22.0775 1.60323L23.407 2.93274C23.9242 3.44814 24.6126 3.73226 25.343 3.73226H27.2152C30.2384 3.73226 32.6989 6.19275 32.6989 9.21782V11.0882C32.7008 11.8185 32.9849 12.5088 33.5003 13.0278L34.8079 14.3355C35.8442 15.3663 36.4179 16.7395 36.4234 18.2056C36.427 19.6626 35.8661 21.034 34.8443 22.0703C34.8261 22.0885 34.8097 22.1085 34.7915 22.1249L33.4985 23.418C32.9849 23.9334 32.7008 24.6236 32.6989 25.3558V27.2262C32.6989 30.2494 30.2384 32.7099 27.2152 32.7099H25.343C24.6126 32.7117 23.9224 32.9959 23.4052 33.5113L22.0957 34.8189C21.0285 35.8934 19.6188 36.4325 18.211 36.4325" fill="white"/>
<path d="M8.9365 23.4299C8.87773 23.4299 8.82875 23.4299 8.78957 23.4299C8.76018 23.4397 8.721 23.4446 8.67203 23.4446C8.43694 23.4446 8.25083 23.3859 8.11369 23.2683C7.98635 23.1606 7.92269 23.0234 7.92269 22.8569C7.92269 22.6708 8.03043 22.4847 8.24593 22.2986C8.86303 22.0145 9.39198 21.657 9.83277 21.226C10.2736 20.795 10.6213 20.2759 10.876 19.6685C10.6605 19.7469 10.445 19.8057 10.2295 19.8449C10.014 19.8742 9.79359 19.8889 9.56829 19.8889C9.04914 19.8889 8.59856 19.8057 8.21654 19.6392C7.84432 19.4726 7.53087 19.262 7.2762 19.0074C7.02152 18.7429 6.83051 18.449 6.70317 18.1258C6.58563 17.8025 6.52686 17.4842 6.52686 17.1707C6.52686 16.8083 6.60032 16.4459 6.74725 16.0835C6.89418 15.7112 7.10478 15.3831 7.37905 15.099C7.66311 14.8052 8.01084 14.5701 8.42225 14.3938C8.84344 14.2077 9.32831 14.1146 9.87685 14.1146C10.3862 14.1146 10.827 14.2126 11.1992 14.4085C11.5714 14.6044 11.8751 14.864 12.1102 15.1872C12.3453 15.5006 12.5167 15.8631 12.6244 16.2745C12.7322 16.6859 12.7763 17.1071 12.7567 17.5381C12.7567 18.1748 12.6685 18.787 12.4922 19.3747C12.3257 19.9526 12.0759 20.4963 11.7429 21.0056C11.4196 21.5052 11.018 21.9606 10.538 22.3721C10.0679 22.7835 9.53401 23.1361 8.9365 23.4299ZM9.5536 18.6107C9.85726 18.6107 10.1609 18.547 10.4646 18.4196C10.778 18.2923 11.0621 18.1307 11.3168 17.9348C11.2972 17.9348 11.2923 17.8907 11.3021 17.8025C11.3217 17.7046 11.3314 17.6115 11.3314 17.5234C11.3314 17.2491 11.307 16.9846 11.258 16.73C11.209 16.4655 11.1257 16.2353 11.0082 16.0394C10.8907 15.8337 10.7339 15.6721 10.538 15.5545C10.3421 15.4272 10.0972 15.3635 9.80338 15.3635C9.5585 15.3635 9.32341 15.4125 9.09812 15.5104C8.88262 15.5986 8.68672 15.7259 8.5104 15.8925C8.34388 16.0492 8.21165 16.2402 8.11369 16.4655C8.01574 16.6908 7.96676 16.9308 7.96676 17.1854C7.96676 17.4107 8.01084 17.6115 8.099 17.7879C8.19695 17.9544 8.31939 18.1013 8.46632 18.2286C8.61325 18.356 8.77977 18.4539 8.96588 18.5225C9.16179 18.5813 9.3577 18.6107 9.5536 18.6107Z" fill="white"/>
<path d="M16.0452 23.4299C15.9865 23.4299 15.9375 23.4299 15.8983 23.4299C15.8689 23.4397 15.8297 23.4446 15.7808 23.4446C15.5457 23.4446 15.3596 23.3859 15.2224 23.2683C15.0951 23.1606 15.0314 23.0234 15.0314 22.8569C15.0314 22.6708 15.1392 22.4847 15.3547 22.2986C15.9718 22.0145 16.5007 21.657 16.9415 21.226C17.3823 20.795 17.73 20.2759 17.9847 19.6685C17.7692 19.7469 17.5537 19.8057 17.3382 19.8449C17.1227 19.8742 16.9023 19.8889 16.677 19.8889C16.1579 19.8889 15.7073 19.8057 15.3253 19.6392C14.9531 19.4726 14.6396 19.262 14.3849 19.0074C14.1303 18.7429 13.9392 18.449 13.8119 18.1258C13.6944 17.8025 13.6356 17.4842 13.6356 17.1707C13.6356 16.8083 13.7091 16.4459 13.856 16.0835C14.0029 15.7112 14.2135 15.3831 14.4878 15.099C14.7718 14.8052 15.1196 14.5701 15.531 14.3938C15.9522 14.2077 16.437 14.1146 16.9856 14.1146C17.4949 14.1146 17.9357 14.2126 18.308 14.4085C18.6802 14.6044 18.9838 14.864 19.2189 15.1872C19.454 15.5006 19.6254 15.8631 19.7332 16.2745C19.8409 16.6859 19.885 17.1071 19.8654 17.5381C19.8654 18.1748 19.7772 18.787 19.6009 19.3747C19.4344 19.9526 19.1846 20.4963 18.8516 21.0056C18.5283 21.5052 18.1267 21.9606 17.6468 22.3721C17.1766 22.7835 16.6428 23.1361 16.0452 23.4299ZM16.6623 18.6107C16.966 18.6107 17.2696 18.547 17.5733 18.4196C17.8868 18.2923 18.1708 18.1307 18.4255 17.9348C18.4059 17.9348 18.401 17.8907 18.4108 17.8025C18.4304 17.7046 18.4402 17.6115 18.4402 17.5234C18.4402 17.2491 18.4157 16.9846 18.3667 16.73C18.3177 16.4655 18.2345 16.2353 18.1169 16.0394C17.9994 15.8337 17.8427 15.6721 17.6468 15.5545C17.4509 15.4272 17.206 15.3635 16.9121 15.3635C16.6672 15.3635 16.4322 15.4125 16.2069 15.5104C15.9914 15.5986 15.7955 15.7259 15.6191 15.8925C15.4526 16.0492 15.3204 16.2402 15.2224 16.4655C15.1245 16.6908 15.0755 16.9308 15.0755 17.1854C15.0755 17.4107 15.1196 17.6115 15.2077 17.7879C15.3057 17.9544 15.4281 18.1013 15.5751 18.2286C15.722 18.356 15.8885 18.4539 16.0746 18.5225C16.2705 18.5813 16.4664 18.6107 16.6623 18.6107Z" fill="white"/>
<path d="M27.8393 13.1449C27.9862 13.0077 28.1723 12.9392 28.3976 12.9392C28.5837 12.9392 28.7405 12.9979 28.8678 13.1155C29.0049 13.233 29.0735 13.38 29.0735 13.5563C29.0735 13.6053 29.0686 13.6542 29.0588 13.7032C29.049 13.7424 29.0343 13.7865 29.0147 13.8354L25.8557 18.3756L22.4764 23.2095C22.3882 23.3271 22.2854 23.4055 22.1678 23.4446C22.0503 23.4838 21.9425 23.5034 21.8446 23.5034C21.6585 23.5034 21.4968 23.4495 21.3597 23.3418C21.2324 23.234 21.1687 23.0871 21.1687 22.901C21.1687 22.8324 21.1785 22.7639 21.1981 22.6953C21.2177 22.6169 21.252 22.5386 21.3009 22.4602C21.8887 21.6374 22.447 20.844 22.9759 20.0799C23.5049 19.3159 24.0338 18.5568 24.5628 17.8025C25.0819 17.0581 25.6109 16.3039 26.1496 15.5398C26.6883 14.7758 27.2467 13.9824 27.8246 13.1596L27.8393 13.1449ZM20.4487 15.2901C20.4683 14.9276 20.5467 14.6142 20.6838 14.3497C20.821 14.0852 20.9924 13.8648 21.1981 13.6885C21.4038 13.5122 21.6389 13.3849 21.9033 13.3065C22.1678 13.2183 22.4323 13.1743 22.6968 13.1743C22.971 13.1743 23.2404 13.2183 23.5049 13.3065C23.7694 13.3947 24.0044 13.5269 24.2101 13.7032C24.4256 13.8795 24.5971 14.0999 24.7244 14.3644C24.8517 14.6191 24.9154 14.9129 24.9154 15.246C24.9154 15.579 24.8468 15.8827 24.7097 16.1569C24.5824 16.4312 24.4109 16.6712 24.1954 16.8769C23.98 17.0728 23.7351 17.2246 23.4608 17.3324C23.1865 17.4401 22.9025 17.494 22.6086 17.494C22.3539 17.494 22.0993 17.445 21.8446 17.3471C21.5997 17.2491 21.3744 17.1071 21.1687 16.921C20.9728 16.7349 20.8063 16.5047 20.6691 16.2304C20.5418 15.9561 20.4683 15.6427 20.4487 15.2901ZM25.5031 21.2407C25.5227 20.8881 25.5962 20.5844 25.7235 20.3297C25.8606 20.0653 26.0321 19.8498 26.2378 19.6832C26.4435 19.5069 26.6737 19.3796 26.9283 19.3012C27.183 19.2131 27.4426 19.169 27.7071 19.169C27.9715 19.169 28.2311 19.2131 28.4858 19.3012C28.7503 19.3894 28.9853 19.5216 29.191 19.6979C29.4065 19.8645 29.578 20.0751 29.7053 20.3297C29.8326 20.5746 29.8963 20.8636 29.8963 21.1966C29.8963 21.5394 29.8326 21.848 29.7053 22.1223C29.5878 22.3965 29.4261 22.6267 29.2204 22.8128C29.0147 22.9989 28.7747 23.141 28.5005 23.2389C28.236 23.3369 27.9617 23.3859 27.6777 23.3859C27.4328 23.3859 27.1879 23.3418 26.943 23.2536C26.6981 23.1753 26.4729 23.0479 26.2672 22.8716C26.0615 22.6953 25.89 22.4749 25.7529 22.2104C25.6158 21.9362 25.5325 21.6129 25.5031 21.2407ZM22.638 14.4379C22.5205 14.4379 22.4176 14.4672 22.3294 14.526C22.2511 14.575 22.1825 14.6436 22.1237 14.7317C22.065 14.8101 22.016 14.9031 21.9768 15.0109C21.9474 15.1088 21.9229 15.2068 21.9033 15.3047C21.9327 15.6084 22.0258 15.8288 22.1825 15.9659C22.3392 16.1031 22.5156 16.1716 22.7115 16.1716C22.8976 16.1716 23.069 16.0982 23.2257 15.9512C23.3922 15.8043 23.4755 15.5839 23.4755 15.2901C23.4755 15.055 23.3873 14.8542 23.211 14.6876C23.0445 14.5211 22.8535 14.4379 22.638 14.4379ZM27.6924 20.462C27.4377 20.462 27.2565 20.5452 27.1487 20.7117C27.0508 20.8783 26.9871 21.0546 26.9577 21.2407C26.9871 21.5248 27.0753 21.7403 27.2222 21.8872C27.3691 22.0243 27.5405 22.0929 27.7364 22.0929C27.903 22.0929 28.0646 22.0243 28.2213 21.8872C28.378 21.7403 28.4564 21.5248 28.4564 21.2407C28.4564 20.9958 28.378 20.8048 28.2213 20.6677C28.0646 20.5305 27.8883 20.462 27.6924 20.462Z" fill="white"/>
</svg>
