<svg width="43" height="42" viewBox="0 0 43 42" fill="none" xmlns="http://www.w3.org/2000/svg">
<path opacity="0.4" d="M2.81679 8.71981L27.1806 8.71981C28.3077 8.71981 29.2225 9.63458 29.2225 10.7617C29.2225 11.8888 28.3077 12.8036 27.1806 12.8036L2.81679 12.8036C1.68967 12.8036 0.774902 11.8888 0.774902 10.7617C0.774902 9.63458 1.68967 8.71981 2.81679 8.71981" fill="white"/>
<mask id="mask0" mask-type="alpha" maskUnits="userSpaceOnUse" x="25" y="0" width="18" height="22">
<path fill-rule="evenodd" clip-rule="evenodd" d="M25.1392 21.9889V2.74375e-05H42.7089V21.9889H25.1392Z" fill="white"/>
</mask>
<g mask="url(#mask0)">
<path d="M26.5182 0.187727C26.7756 0.187727 27.0293 0.259433 27.2536 0.399171L41.8452 9.5943C42.246 9.84803 42.4906 10.2875 42.4906 10.7618C42.4906 11.2362 42.246 11.6757 41.8452 11.9294L27.2536 21.1245C26.8289 21.3911 26.292 21.4077 25.8526 21.1631C25.4113 20.9204 25.1392 20.4589 25.1392 19.957V1.56672C25.1392 1.06476 25.4113 0.603263 25.8526 0.36056C26.0603 0.244724 26.2902 0.187727 26.5182 0.187727" fill="white"/>
</g>
<path opacity="0.4" d="M40.255 32.8409H15.8912C14.764 32.8409 13.8493 31.9261 13.8493 30.799C13.8493 29.6718 14.764 28.7571 15.8912 28.7571H40.255C41.3821 28.7571 42.2969 29.6718 42.2969 30.799C42.2969 31.9261 41.3821 32.8409 40.255 32.8409" fill="white"/>
<mask id="mask1" mask-type="alpha" maskUnits="userSpaceOnUse" x="0" y="19" width="18" height="23">
<path fill-rule="evenodd" clip-rule="evenodd" d="M17.9326 19.5718V41.5606H0.362871V19.5718H17.9326Z" fill="white"/>
</mask>
<g mask="url(#mask1)">
<path d="M16.5536 41.3729C16.2962 41.3729 16.0425 41.3012 15.8182 41.1615L1.22658 31.9664C0.825752 31.7126 0.581209 31.2732 0.581209 30.7988C0.581209 30.3245 0.825752 29.885 1.22658 29.6313L15.8182 20.4362C16.2429 20.1695 16.7798 20.153 17.2192 20.3975C17.6605 20.6402 17.9326 21.1017 17.9326 21.6037V39.994C17.9326 40.4959 17.6605 40.9574 17.2192 41.2001C17.0114 41.3159 16.7816 41.3729 16.5536 41.3729" fill="white"/>
</g>
</svg>
