<svg width="32" height="32" viewBox="0 0 32 32" fill="none" xmlns="http://www.w3.org/2000/svg">
<path d="M16.2423 0.88916C7.32075 0.88916 0.856079 8.16767 0.856079 16.2447C0.856079 18.8244 1.6085 21.4809 2.92907 23.9071C3.17476 24.3063 3.20547 24.813 3.03656 25.2891L2.00774 28.7287C1.77741 29.5579 2.48376 30.1721 3.26689 29.9264L6.3687 29.0051C7.21326 28.7287 7.87354 29.0819 8.65821 29.5579C10.9001 30.8785 13.6933 31.5541 16.2116 31.5541C23.8279 31.5541 31.5671 25.6729 31.5671 16.1986C31.5671 8.02947 24.9642 0.88916 16.2423 0.88916" fill="white"/>
<path fill-rule="evenodd" clip-rule="evenodd" d="M9.1021 18.2255C8.02722 18.2255 7.1366 17.3349 7.1366 16.26C7.1366 15.1698 8.01186 14.2945 9.1021 14.2945C10.1923 14.2945 11.0676 15.1698 11.0676 16.26C11.0676 17.3349 10.1923 18.2101 9.1021 18.2255ZM16.1815 18.2257C15.0913 18.2104 14.216 17.3351 14.216 16.2449C14.216 15.17 15.1066 14.2794 16.1815 14.2947C17.2718 14.2947 18.147 15.17 18.147 16.2602C18.147 17.3351 17.2718 18.2257 16.1815 18.2257ZM21.2947 16.2604C21.2947 17.3353 22.1699 18.2259 23.2602 18.2259C24.3504 18.2259 25.2257 17.3353 25.2257 16.2604C25.2257 15.1702 24.3504 14.2949 23.2602 14.2949C22.1699 14.2949 21.2947 15.1702 21.2947 16.2604Z" fill="#A388EF"/>
</svg>
