<svg width="28" height="33" viewBox="0 0 28 33" fill="none" xmlns="http://www.w3.org/2000/svg">
<path d="M14.352 32.4428C14.1511 32.4428 13.9502 32.3967 13.769 32.3029L7.92748 29.279C6.26991 28.4201 4.97326 27.4561 3.96075 26.3331C1.74468 23.8772 0.511709 20.7245 0.492113 17.4541L0.423524 6.69014C0.415358 5.44784 1.2172 4.33279 2.41587 3.91285L13.1419 0.173226C13.7788 -0.0542381 14.4892 -0.0574194 15.1375 0.162091L25.9043 3.77447C27.1095 4.1769 27.9244 5.284 27.9309 6.52471L27.9995 17.2966C28.0208 20.5622 26.8303 23.7276 24.6485 26.2107C23.6474 27.3496 22.3622 28.3278 20.7209 29.2027L14.9317 32.2949C14.7521 32.3919 14.5528 32.4412 14.352 32.4428" fill="white"/>
<path d="M13.1071 19.9863C12.7935 19.9879 12.48 19.8749 12.2383 19.6427L9.12892 16.6523C8.6488 16.1878 8.6439 15.4338 9.11912 14.9662C9.59435 14.4969 10.3701 14.4922 10.8518 14.955L13.0891 17.1056L18.5517 11.7196C19.0286 11.2504 19.8043 11.2456 20.2844 11.7085C20.7662 12.173 20.7711 12.9285 20.2959 13.3946L13.971 19.6316C13.7325 19.867 13.4206 19.9847 13.1071 19.9863" fill="#A388EF"/>
</svg>
