<svg width="59" height="48" viewBox="0 0 59 48" fill="none" xmlns="http://www.w3.org/2000/svg">
<path d="M44.4507 9.70539C41.911 6.62916 38.4838 4.41163 34.637 3.35548C30.7903 2.29934 26.7113 2.45604 22.9568 3.80421C19.2024 5.15238 15.9555 7.62632 13.6593 10.8883C11.3631 14.1504 10.1296 18.0415 10.127 22.0306V27.323" stroke="white" stroke-opacity="0.4" stroke-width="5" stroke-linecap="round" stroke-linejoin="round"/>
<path d="M16.2878 38.5601C18.9511 41.3822 22.4003 43.3398 26.1887 44.1794C29.9772 45.019 33.9305 44.702 37.5367 43.2694C41.1429 41.8367 44.236 39.3545 46.4155 36.1441C48.595 32.9336 49.7606 29.1428 49.7612 25.2624V21.7389" stroke="white" stroke-opacity="0.4" stroke-width="5" stroke-linecap="round" stroke-linejoin="round"/>
<path d="M18.9008 18.655C18.8897 18.8672 18.8196 19.0733 18.6947 19.2522L10.4844 30.8834C10.2579 31.2029 9.88509 31.3855 9.49404 31.365C9.10299 31.3445 8.75131 31.1239 8.55946 30.7825L1.60989 18.3568C1.40847 17.9952 1.41802 17.5519 1.63859 17.2002C1.85773 16.8469 2.24992 16.6425 2.6637 16.6642L17.8236 17.4587C18.2374 17.4804 18.6061 17.7246 18.7871 18.0989C18.8736 18.2752 18.9107 18.4671 18.9008 18.655" fill="white"/>
<path d="M40.5387 29.2449C40.546 29.0353 40.6116 28.8308 40.7317 28.6522L48.6318 17.0353C48.8498 16.7162 49.2145 16.5296 49.6006 16.5431C49.9868 16.5566 50.3376 16.7681 50.5327 17.1016L57.6032 29.2413C57.8082 29.5947 57.8064 30.0322 57.5948 30.383C57.3847 30.7353 57.0013 30.9437 56.5927 30.9294L41.6221 30.4066C41.2135 30.3924 40.8455 30.1577 40.6605 29.7916C40.5721 29.6192 40.5322 29.4305 40.5387 29.2449" fill="white"/>
</svg>
