<svg width="44" height="40" viewBox="0 0 44 40" fill="none" xmlns="http://www.w3.org/2000/svg">
<path fill-rule="evenodd" clip-rule="evenodd" d="M43.0642 12.4737H33.9445C29.7005 12.4811 26.2624 15.8333 26.2547 19.9713C26.249 24.1186 29.6909 27.4857 33.9445 27.4913H43.0719V28.1502C43.0719 35.3846 38.6862 39.6625 31.2645 39.6625H11.8094C4.38568 39.6625 0 35.3846 0 28.1502V12.3934C0 5.15898 4.38568 0.897827 11.8094 0.897827H31.2568C38.6786 0.897827 43.0642 5.15898 43.0642 12.3934V12.4737ZM10.2071 12.4568H22.3534H22.361H22.3764C23.2857 12.4531 24.0207 11.7307 24.0169 10.8423C24.0131 9.95572 23.2703 9.239 22.361 9.24273H10.2071C9.30356 9.24646 8.57038 9.96132 8.56655 10.8442C8.56272 11.7307 9.29781 12.4531 10.2071 12.4568Z" fill="white"/>
<path opacity="0.4" d="M30.2309 20.9191C30.6813 22.9676 32.4773 24.4088 34.5278 24.3714H41.5268C42.3799 24.3714 43.072 23.6648 43.072 22.7914V17.3395C43.0701 16.468 42.3799 15.7596 41.5268 15.7577H34.363C32.0306 15.7652 30.1467 17.7012 30.1504 20.087C30.1504 20.3663 30.1779 20.6455 30.2309 20.9191" fill="white"/>
<circle cx="34.4573" cy="20.0648" r="2.15359" fill="white"/>
</svg>
